<svg xmlns="http://www.w3.org/2000/svg" width="117.121" height="141.667" viewBox="0 0 117.121 141.667" fill="none">
  <path d="M 0 141.667 L 0 0 L 48.801 0 C 59.817 0 68.224 0.676 74.022 2.029 C 82.14 3.898 89.065 7.28 94.799 12.176 C 102.272 18.489 107.844 26.575 111.517 36.431 C 115.253 46.224 117.121 57.433 117.121 70.06 C 117.121 80.819 115.865 90.354 113.353 98.664 C 110.84 106.975 107.619 113.868 103.689 119.344 C 99.759 124.756 95.443 129.04 90.74 132.196 C 86.102 135.289 80.465 137.64 73.829 139.251 C 67.258 140.861 59.688 141.667 51.12 141.667 L 0 141.667 Z M 18.747 124.949 L 48.994 124.949 C 58.335 124.949 65.647 124.079 70.93 122.34 C 76.277 120.6 80.529 118.152 83.686 114.995 C 88.131 110.55 91.578 104.591 94.026 97.118 C 96.538 89.58 97.794 80.465 97.794 69.77 C 97.794 54.953 95.346 43.582 90.45 35.658 C 85.618 27.67 79.724 22.323 72.766 19.617 C 67.741 17.684 59.656 16.718 48.511 16.718 L 18.747 16.718 L 18.747 124.949 Z" fill="currentColor" fill-rule="nonzero"></path>
</svg>