<svg xmlns="http://www.w3.org/2000/svg" width="190.322" height="230.208" viewBox="0 0 190.322 230.208" fill="none">
  <path d="M 0 230.208 L 0 0 L 79.301 0 C 97.203 0 110.864 1.099 120.286 3.298 C 133.477 6.334 144.731 11.83 154.048 19.786 C 166.192 30.045 175.247 43.184 181.214 59.201 C 187.286 75.113 190.322 93.329 190.322 113.848 C 190.322 131.331 188.281 146.825 184.198 160.329 C 180.115 173.834 174.881 185.036 168.495 193.934 C 162.109 202.728 155.095 209.69 147.453 214.819 C 139.915 219.844 130.755 223.665 119.972 226.283 C 109.294 228.9 96.993 230.208 83.07 230.208 L 0 230.208 Z M 30.464 203.042 L 79.615 203.042 C 94.795 203.042 106.677 201.629 115.261 198.802 C 123.95 195.975 130.86 191.997 135.989 186.868 C 143.213 179.644 148.814 169.961 152.792 157.817 C 156.875 145.568 158.916 130.755 158.916 113.377 C 158.916 89.299 154.938 70.821 146.982 57.945 C 139.13 44.963 129.551 36.274 118.245 31.877 C 110.079 28.737 96.941 27.166 78.83 27.166 L 30.464 27.166 L 30.464 203.042 Z" fill="currentColor" fill-rule="nonzero"></path>
</svg>